<?xml version="1.0" encoding="UTF-8"?>
<svg version="1.1" xmlns="http://www.w3.org/2000/svg" width="1024" height="1024">
<path d="M0 0 C337.92 0 675.84 0 1024 0 C1024 337.92 1024 675.84 1024 1024 C686.08 1024 348.16 1024 0 1024 C0 686.08 0 348.16 0 0 Z " fill="#00326E" transform="translate(0,0)"/>
<path d="M0 0 C2.01740749 -0.00230692 4.03481413 -0.00548499 6.05221903 -0.00945449 C11.57347086 -0.01777948 17.09465326 -0.01368763 22.61590528 -0.00748205 C28.57921276 -0.00294912 34.54250847 -0.00994554 40.5058136 -0.01544189 C51.50553061 -0.02381567 62.50522707 -0.02309787 73.50494487 -0.01761896 C83.66903609 -0.01258135 93.83311924 -0.01127746 103.99721146 -0.01366425 C105.00981189 -0.0138934 105.00981189 -0.0138934 106.04286889 -0.01412719 C108.78343299 -0.0147499 111.52399708 -0.0153867 114.26456117 -0.01604671 C139.95826077 -0.02216071 165.65194635 -0.01662439 191.34564378 -0.00585292 C214.1526067 0.00363568 236.95954728 0.00279038 259.76651001 -0.0067749 C285.411181 -0.01749446 311.05583961 -0.0217249 336.70051253 -0.01555037 C339.43660903 -0.01490898 342.17270553 -0.01428329 344.90880203 -0.01366425 C345.58246069 -0.01350609 346.25611935 -0.01334794 346.95019191 -0.01318499 C357.10432421 -0.01091408 367.25844753 -0.0135631 377.41257858 -0.01862335 C388.9647249 -0.02435171 400.51684615 -0.02269962 412.0689895 -0.01206186 C417.96029768 -0.00681523 423.8515606 -0.00473122 429.74286842 -0.01136017 C435.14145426 -0.01734269 440.53995311 -0.01400659 445.93853112 -0.00340506 C447.88591785 -0.00118076 449.83331202 -0.00228539 451.78069393 -0.00715664 C478.67994069 -0.06925363 503.54513865 4.64561838 524.08682251 23.25396729 C524.9053772 23.97970947 525.72393188 24.70545166 526.56729126 25.45318604 C541.74464692 39.68931034 553.45579516 60.98571371 554.18400455 82.06738901 C554.22775759 85.59449311 554.23933603 89.12044778 554.24072266 92.64782715 C554.24474231 94.01801195 554.24918137 95.38819557 554.25400221 96.75837779 C554.26591779 100.51400551 554.27160448 104.26962042 554.27618337 108.02526331 C554.2821587 112.08008311 554.29376377 116.13488774 554.30447388 120.18969727 C554.32895557 129.97857211 554.34361974 139.76745195 554.35653394 149.55634797 C554.36024926 152.32408723 554.36422222 155.09182601 554.36828661 157.85956478 C554.39352886 175.06938234 554.41556866 192.27920077 554.42801476 209.48903275 C554.43094416 213.47220106 554.43390586 217.45536935 554.43692017 221.4385376 C554.43766622 222.42846052 554.43841227 223.41838345 554.43918093 224.43830404 C554.45182034 240.45559681 554.4850268 256.47277822 554.526722 272.49001899 C554.56923684 288.95800378 554.59272086 305.42593171 554.59793532 321.8939712 C554.60133884 331.13059515 554.6129683 340.36704512 554.64603806 349.60361481 C554.67417141 357.47404556 554.68498009 365.34426665 554.67384259 373.21474376 C554.6686895 377.22329134 554.67132139 381.23140079 554.69630814 385.23988342 C554.88983678 418.10904655 548.80726584 443.65057509 525.83682251 468.00396729 C508.88465564 484.4293719 486.35960611 492.48382905 462.9747467 492.33816528 C461.29022474 492.33393041 461.29022474 492.33393041 459.57167202 492.32960999 C455.80642939 492.31920609 452.0412492 492.30182765 448.27603149 492.284729 C445.57706182 492.27630171 442.87809577 492.26833888 440.17912292 492.26118469 C435.86521898 492.24949223 431.5513183 492.23744301 427.23742187 492.22321582 C416.53764175 492.18830364 405.83794139 492.17226225 395.1381073 492.16757202 C393.97614075 492.16701727 393.97614075 492.16701727 392.79070013 492.16645132 C386.41214831 492.16347703 380.03359627 492.16130085 373.655044 492.15955052 C367.91282057 492.15796373 362.17059797 492.15569423 356.42837524 492.15240479 C355.2004653 492.15171433 355.2004653 492.15171433 353.94774909 492.15100993 C340.693911 492.14246358 327.44041164 492.0980328 314.1867032 492.04122745 C300.5640528 491.98375159 286.94180136 491.96828465 273.31904656 491.99063122 C264.92524366 492.00302137 256.53285354 491.98256824 248.13927395 491.91933508 C242.38003826 491.87902225 236.62168423 491.87940816 230.86239886 491.91113512 C227.54388211 491.92821202 224.22994414 491.9218242 220.91135788 491.8787899 C204.31168684 491.21579057 204.31168684 491.21579057 190.1570282 498.64559937 C188.37344413 500.45379043 186.74291739 502.32260154 185.08682251 504.25396729 C183.83832386 505.31177717 182.56308236 506.34015065 181.24697876 507.31256104 C175.38785885 511.8121878 169.66578723 516.41075874 164.08682251 521.25396729 C158.93480413 525.72653535 153.66264012 529.99325861 148.27310181 534.175354 C143.67283362 537.7582862 139.20959914 541.48083641 134.77456665 545.26544189 C129.60880108 549.67350923 124.3553793 553.96939095 119.08682251 558.25396729 C115.41687208 561.24996077 111.75054648 564.25036399 108.08682251 567.25396729 C107.1306604 568.03779785 107.1306604 568.03779785 106.15518188 568.83746338 C98.26300753 575.31133929 90.39459789 581.80836073 82.61856079 588.42144775 C78.41996576 591.98728749 74.16094252 595.47371338 69.88760376 598.94927979 C66.81906464 601.47429803 63.79642439 604.04881498 60.77432251 606.62896729 C55.78297643 610.88546396 50.67166348 614.95372171 45.4828186 618.96588135 C40.13199743 623.1397307 35.02897221 627.57917172 29.97207642 632.10308838 C29.37701294 632.62983154 28.78194946 633.15657471 28.16885376 633.69927979 C27.38345215 634.40334961 27.38345215 634.40334961 26.58218384 635.12164307 C25.08682251 636.25396729 25.08682251 636.25396729 22.08682251 637.25396729 C22.08682251 589.40396729 22.08682251 541.55396729 22.08682251 492.25396729 C6.90682251 492.25396729 -8.27317749 492.25396729 -23.91317749 492.25396729 C-51.644243 486.09150828 -72.45070442 475.16483667 -88.00302124 451.00787354 C-98.17095293 434.34291351 -102.39502129 416.3377386 -102.30085754 396.95381165 C-102.30504383 395.58283078 -102.31052836 394.21185338 -102.31717736 392.84088224 C-102.33148091 389.12026892 -102.32743527 385.39987994 -102.32001054 381.67925513 C-102.31524335 377.64847976 -102.32781976 373.6177505 -102.33802795 369.58699036 C-102.35515165 361.70888532 -102.35606947 353.83086026 -102.35081505 345.95274145 C-102.34676046 339.54495234 -102.34823214 333.13718673 -102.35356331 326.72939873 C-102.35431173 325.81463071 -102.35506015 324.89986269 -102.35583125 323.95737443 C-102.35736285 322.09856514 -102.3589012 320.23975585 -102.36044622 318.38094657 C-102.37414773 300.98236954 -102.36874989 283.58383758 -102.35726101 266.1852616 C-102.34732876 250.29579091 -102.36027336 234.40643667 -102.3841952 218.51698393 C-102.40862274 202.16740029 -102.41818524 185.8178708 -102.41154248 169.46826929 C-102.40805867 160.30288361 -102.41022683 151.13758745 -102.4277935 141.97221565 C-102.44256119 134.17106551 -102.44309142 126.37006797 -102.42572259 118.56892068 C-102.41724808 114.59519084 -102.4149753 110.62173307 -102.43037415 106.64801788 C-102.54041403 76.06485313 -102.54041403 76.06485313 -97.91317749 63.25396729 C-97.34639613 61.6453235 -97.34639613 61.6453235 -96.76816463 60.00418186 C-88.23476716 36.98038574 -70.9975944 18.57555921 -48.86581421 8.12213135 C-32.9128207 1.02925251 -17.22042174 -0.04296825 0 0 Z " fill="#FDCA06" transform="translate(285.9131774902344,208.74603271484375)"/>
<path d="M0 0 C0.83049739 -0.00235223 1.66099478 -0.00470446 2.51665875 -0.00712797 C5.28784725 -0.01376259 8.05898825 -0.01336143 10.83018398 -0.01294994 C12.84199975 -0.01625204 14.85381486 -0.01997833 16.86562914 -0.02409142 C22.38573242 -0.0340805 27.90582483 -0.03782323 33.42593586 -0.04048073 C39.38335226 -0.04439306 45.34076012 -0.05397082 51.29817104 -0.0626936 C65.00270864 -0.08150027 78.70724774 -0.09171092 92.41179469 -0.10015428 C99.19265564 -0.10436738 105.97351571 -0.10958854 112.75437592 -0.11483881 C135.99191111 -0.13272793 159.22944657 -0.14772031 182.46698761 -0.155159 C183.92484209 -0.15563374 185.38269657 -0.15610963 186.84055104 -0.15658666 C187.56347635 -0.15682303 188.28640165 -0.15705941 189.03123378 -0.15730295 C192.69358222 -0.15850408 196.35593065 -0.15971955 200.01827908 -0.16094494 C200.7450678 -0.16118509 201.47185653 -0.16142524 202.22066915 -0.16167267 C225.75867781 -0.1695569 249.29663593 -0.19297116 272.83462254 -0.22550088 C297.75270302 -0.25987464 322.67075398 -0.27951721 347.58885854 -0.28280324 C350.32967469 -0.28322073 353.07049082 -0.28370029 355.81130695 -0.28422642 C356.48611403 -0.28434961 357.16092111 -0.2844728 357.85617689 -0.28459973 C368.00369576 -0.28677919 378.15116147 -0.30002678 388.29866123 -0.31926441 C399.85975914 -0.3410427 411.42076475 -0.34898693 422.98188085 -0.33929763 C428.87243891 -0.33477339 434.76280683 -0.33652922 440.65333843 -0.35605907 C486.8209842 -0.50054016 486.8209842 -0.50054016 505.30709743 4.13422108 C506.19247224 4.35343546 507.07784704 4.57264985 507.99005139 4.79850709 C533.27876884 11.18425504 555.04260869 23.76719224 574.30709743 41.13422108 C575.03283962 41.78777576 575.75858181 42.44133045 576.50631618 43.11468983 C603.1905148 68.49986052 619.52553105 107.10152258 621.49400306 143.59970915 C621.5669826 147.07635846 621.58353307 150.54801537 621.57452297 154.02541065 C621.57905409 155.33886973 621.5835852 156.6523288 621.58825362 158.00558966 C621.60034022 161.60423784 621.60024036 165.20279208 621.59786487 168.80145586 C621.597453 172.70153561 621.60853099 176.60158669 621.61798 180.50165272 C621.63451365 188.12641924 621.64008614 195.75115483 621.64120476 203.3759378 C621.64215919 209.58388508 621.6462891 215.79182227 621.65260601 221.99976635 C621.67020018 239.65346369 621.67944813 257.30713683 621.67794506 274.960843 C621.67782519 276.38507457 621.67782519 276.38507457 621.6777029 277.8380785 C621.67762114 278.78874448 621.67753938 279.73941045 621.67745514 280.71888449 C621.67664351 296.10044112 621.6957551 311.48189954 621.72397964 326.8634278 C621.75282302 342.70906905 621.76651356 358.5546626 621.76479208 374.40033072 C621.76413196 383.27540788 621.76945651 392.15038216 621.79114819 401.02543545 C621.80951188 408.58657777 621.81358478 416.14757063 621.80012934 423.70872579 C621.79367425 427.55408666 621.79320525 431.39916213 621.81083584 435.24449444 C622.00882548 481.44536705 612.09622253 523.96971322 579.30709743 558.13422108 C578.47694118 559.02754139 577.64678493 559.9208617 576.79147243 560.84125233 C550.62967279 588.18874757 510.95747768 602.82049657 473.61055231 604.23645711 C466.2652418 604.38210937 458.92010687 604.3063457 451.57418728 604.24676991 C449.12314753 604.23476198 446.67210223 604.22384725 444.22105312 604.21393299 C439.65060097 604.19454255 435.08018995 604.17223668 430.50977553 604.14536317 C421.52861825 604.09289606 412.54757639 604.06950159 403.56628323 604.05650806 C402.14549171 604.05432644 400.7247002 604.05213814 399.30390871 604.04994327 C396.42965746 604.04557703 393.55540604 604.04134899 390.68115449 604.03718412 C383.32404239 604.02637835 375.96693543 604.0138169 368.60983181 603.99823475 C367.87273568 603.99668432 367.13563956 603.9951339 366.37620719 603.99353649 C354.42086179 603.96713326 342.46602475 603.90063485 330.51092832 603.82131115 C318.19195428 603.74069185 305.87353286 603.71000936 293.5543009 603.72337836 C285.97858129 603.72991553 278.40514261 603.69737282 270.82987942 603.61310943 C265.01925482 603.55249907 259.2102586 603.56085446 253.3994875 603.59400654 C251.02878179 603.59684087 248.65792438 603.57767693 246.28761768 603.534091 C234.64740927 603.33201974 225.54944559 603.26187297 216.62512112 611.44505787 C214.95416511 613.11405308 213.34610826 614.8154812 211.76773477 616.57203996 C209.6243108 618.86447517 207.211885 620.76575253 204.74459743 622.69672108 C200.53511028 626.10559254 196.40952649 629.59825472 192.30709743 633.13422108 C187.28628794 637.4602591 182.20570746 641.69774088 177.06100368 645.87640858 C174.07340786 648.32581338 171.12454409 650.81852617 168.18209743 653.32172108 C163.12142349 657.62565874 158.00697436 661.85971734 152.86959743 666.07172108 C146.9137415 670.95669651 141.02851125 675.91262792 135.19625759 680.94427967 C130.88547334 684.65720884 126.50113914 688.27033699 122.08444118 691.85687733 C118.96313476 694.41626079 115.88256319 697.02012024 112.80709743 699.63422108 C108.86059263 702.98869235 104.89067672 706.30643937 100.86959743 709.57172108 C96.00580718 713.52930295 91.24828512 717.59964554 86.49874783 721.69257069 C82.1110714 725.46586442 77.65172156 729.14004837 73.15475368 732.78265858 C70.41980928 735.04114491 67.73907364 737.35043545 65.06417751 739.67914295 C49.94701006 752.80651552 36.90567946 760.26203697 16.31686306 759.30902576 C5.43106739 758.36220486 -5.29750997 752.18944209 -12.56790257 744.19672108 C-20.21712943 734.66713534 -25.82678449 723.63618691 -25.81315708 711.16710377 C-25.81521908 709.70535221 -25.81521908 709.70535221 -25.81732273 708.21407032 C-25.81372746 707.15671177 -25.81013218 706.09935322 -25.80642796 705.0099535 C-25.80657398 703.88756275 -25.80672001 702.765172 -25.80687046 701.60876942 C-25.80617432 697.90238983 -25.79839584 694.19606063 -25.79055882 690.48968983 C-25.78869358 687.91850786 -25.78727017 685.34732553 -25.7862711 682.77614307 C-25.7828443 676.70246167 -25.77496439 670.62880103 -25.76492161 664.55512744 C-25.75373402 657.6385797 -25.74824335 650.72203109 -25.74322617 643.80547655 C-25.73278106 629.58171504 -25.71519812 615.3579687 -25.69290257 601.13422108 C-26.71743534 600.93515156 -27.74196812 600.73608204 -28.79754734 600.53098011 C-30.15803646 600.26360371 -31.5184985 599.9960895 -32.87893772 599.72845936 C-33.5522765 599.59800724 -34.22561527 599.46755512 -34.91935825 599.33314991 C-40.15751455 598.29837596 -45.09001009 596.91964942 -50.06790257 595.00922108 C-50.85898411 594.70991688 -51.65006565 594.41061268 -52.46511936 594.10223866 C-71.73812218 586.58083265 -87.87974989 575.4308761 -102.69290257 561.13422108 C-103.54497288 560.34531483 -104.39704319 559.55640858 -105.27493382 558.74359608 C-126.09802552 538.93706475 -138.73251511 511.93053034 -144.69290257 484.13422108 C-144.86073675 483.45237668 -145.02857093 482.77053229 -145.201491 482.06802595 C-146.89418015 474.69823392 -146.97834332 467.54335716 -146.9603281 460.00668812 C-146.96407069 458.59337764 -146.96867462 457.18006922 -146.97405875 455.76676404 C-146.98622983 451.90580439 -146.98603526 448.04493177 -146.98367 444.18395734 C-146.98326031 440.01055569 -146.99431566 435.83718138 -147.00378513 431.66379261 C-147.02036558 423.49424747 -147.02589341 415.3247312 -147.02700989 407.15517063 C-147.02796211 400.50797918 -147.03208112 393.8607972 -147.03841114 387.21360874 C-147.05601832 368.3378889 -147.06525125 349.46219176 -147.06375019 330.58646365 C-147.06367028 329.56984567 -147.06359037 328.55322769 -147.06350803 327.50580311 C-147.06342627 326.48793285 -147.06334451 325.47006259 -147.06326027 324.42134778 C-147.06244833 307.945813 -147.08156411 291.47036986 -147.10978477 274.99486156 C-147.13858058 258.04877593 -147.15232127 241.10273489 -147.15059721 224.1566242 C-147.14993545 214.65456578 -147.15533336 205.15260333 -147.17695332 195.65056705 C-147.19525384 187.555905 -147.19944048 179.46138237 -147.18593447 171.36670847 C-147.1794482 167.24467127 -147.17912803 163.12290084 -147.19664097 159.00088978 C-147.27665345 138.92564843 -146.99551345 119.33346446 -139.44290257 100.38422108 C-139.14625706 99.61312 -138.84961155 98.84201893 -138.54397678 98.04755116 C-123.17642905 59.04409038 -94.86377188 29.00476407 -56.63040257 11.82172108 C-38.74990564 4.5126034 -19.35132213 -0.0379951 0 0 Z M-62.69290257 80.13422108 C-63.7022385 81.00240467 -63.7022385 81.00240467 -64.73196507 81.88812733 C-79.63067551 95.62936824 -90.65867925 117.97354478 -91.87838709 138.21193159 C-91.95257386 141.75597532 -91.96429574 145.29502132 -91.95359898 148.83983326 C-91.95662459 150.20720926 -91.96051612 151.57458356 -91.96519154 152.94195491 C-91.97542783 156.67575424 -91.97330092 160.40945709 -91.96901095 164.14326417 C-91.96653568 168.17955159 -91.9755679 172.21581624 -91.98304844 176.25209522 C-91.99577618 184.1512578 -91.99759146 192.05038634 -91.99524818 199.94955745 C-91.99346237 206.37415612 -91.99522029 212.7987445 -91.99947262 219.22334194 C-92.00006781 220.13907613 -92.000663 221.05481032 -92.00127622 221.99829403 C-92.00248803 223.85887672 -92.00370216 225.71945941 -92.0049186 227.5800421 C-92.01578714 245.0167089 -92.01363514 262.45335634 -92.00753375 279.89002422 C-92.00236765 295.81926715 -92.01361317 311.74844886 -92.03263197 327.67767968 C-92.05203538 344.0553442 -92.06026183 360.43297981 -92.05650872 376.81065589 C-92.05460016 385.9967499 -92.05705032 395.18279186 -92.07122326 404.36887646 C-92.08317012 412.19101295 -92.08450518 420.01306535 -92.07243309 427.83520307 C-92.06656695 431.82088495 -92.06538164 435.80641328 -92.07743549 439.79208469 C-92.08837139 443.45085441 -92.08510073 447.10934381 -92.07117381 450.76810084 C-92.06731742 452.69712244 -92.0780108 454.62615688 -92.08947068 456.5551483 C-91.93044945 482.59740492 -81.59118403 505.55013423 -63.88040257 524.38422108 C-36.06557212 550.91184609 -5.31820177 548.13422108 32.30709743 548.13422108 C32.30709743 595.98422108 32.30709743 643.83422108 32.30709743 693.13422108 C36.66062077 690.53263161 36.66062077 690.53263161 40.50631618 687.49750233 C41.0703616 687.00693348 41.63440701 686.51636463 42.2155447 686.01093006 C42.8026321 685.4947411 43.38971951 684.97855213 43.99459743 684.44672108 C48.83065612 680.24547775 53.72529391 676.16115436 58.75240993 672.18890858 C61.79434619 669.74233599 64.7712582 667.2258579 67.74459743 664.69672108 C72.53371814 660.62447643 77.36326864 656.60940373 82.23678493 652.63812733 C86.05929053 649.52079134 89.8724823 646.39229167 93.68209743 643.25922108 C94.78049953 642.3559911 94.78049953 642.3559911 95.90109158 641.43451405 C100.29926449 637.81030627 104.66084807 634.1475714 108.99459743 630.44672108 C113.3049841 626.76738357 117.70267782 623.23038108 122.18209743 619.75922108 C127.95653968 615.28243353 133.48734024 610.57110641 138.98458767 605.75970936 C143.10476938 602.15877901 147.29037197 598.67480216 151.58834743 595.28656483 C155.16586754 592.45436141 158.70499577 589.57609042 162.24459743 586.69672108 C162.93698513 586.13372303 163.62937283 585.57072498 164.34274197 584.99066639 C170.00664487 580.38297227 175.65955422 575.76194996 181.30709743 571.13422108 C184.04905222 568.89044692 186.79135533 566.64709893 189.53365993 564.40375233 C191.44557855 562.83921047 193.35700769 561.27407033 195.26803493 559.70843983 C196.22967556 558.92082264 197.19131618 558.13320545 198.18209743 557.32172108 C199.04576931 556.61402576 199.90944118 555.90633045 200.79928493 555.17718983 C202.04065212 554.1659203 202.04065212 554.1659203 203.30709743 553.13422108 C203.95780869 552.4422337 204.60851995 551.75024632 205.27894974 551.03728962 C209.82741293 548.17876418 213.99519336 548.58936273 219.26527309 548.64215565 C220.38390549 548.63747666 221.50253788 548.63279767 222.65506822 548.62797689 C226.4119507 548.61702474 230.16816631 548.63455306 233.92501736 548.6517992 C236.61574634 548.64961376 239.30642694 548.645824 241.99714565 548.63994312 C247.7980331 548.63026018 253.59877033 548.63473256 259.39964771 548.64836597 C267.80631895 548.66775023 276.21282179 548.66127848 284.61949746 548.64779216 C298.28482226 548.62620069 311.95010736 548.61949819 325.61544704 548.62494373 C326.84223792 548.62542468 326.84223792 548.62542468 328.09381244 548.62591535 C334.72217679 548.62862526 341.35054074 548.63205279 347.97890472 548.63552094 C353.7539109 548.63851403 359.5289171 548.64122343 365.30392361 548.64349842 C366.11684351 548.64382393 366.92976342 548.64414944 367.76731726 548.64448482 C381.36615575 548.64944278 394.96493927 548.63868225 408.56376058 548.61692667 C416.93782399 548.60428376 425.31165938 548.60558539 433.68571017 548.62537754 C439.43867865 548.63807138 445.19153246 548.63644488 450.94450101 548.62400401 C454.25422552 548.61734966 457.56334102 548.61922473 460.87307644 548.63458538 C479.74996278 548.71719625 497.12045634 547.72754162 514.30709743 539.13422108 C515.28936306 538.64308826 516.27162868 538.15195545 517.28365993 537.64593983 C525.43602158 533.23271046 531.79925492 527.63303746 538.30709743 521.13422108 C539.123074 520.32984608 539.93905056 519.52547108 540.77975368 518.69672108 C549.88124483 509.20494301 555.8931588 497.4401409 560.30709743 485.13422108 C560.84025617 483.6669416 560.84025617 483.6669416 561.38418579 482.1700201 C565.62232146 468.19846777 564.87096886 453.69747256 564.81533706 439.24503922 C564.80413058 435.186372 564.81620144 431.12776016 564.8251791 427.06909657 C564.83904757 419.13895988 564.83160329 411.20898341 564.81650352 403.27885447 C564.79956712 394.02903709 564.8028632 384.77925876 564.8065976 375.52943064 C564.8124643 359.01826738 564.79835057 342.50718059 564.77365017 325.99603748 C564.74972513 310.00121667 564.74265049 294.00649798 564.75314236 278.01166248 C564.76456923 260.56033965 564.76646039 243.10906394 564.75204426 225.65774167 C564.75051854 223.79458658 564.74899819 221.9314315 564.74748325 220.06827641 C564.74672544 219.15175335 564.74596763 218.23523029 564.74518685 217.29093381 C564.7404583 210.85422735 564.74228522 204.41754204 564.74654865 197.98083591 C564.75149134 190.13062419 564.74541958 182.28050871 564.72565436 174.43031894 C564.71582946 170.43055091 564.71062492 166.43092896 564.71854687 162.4311533 C564.72566703 158.76094316 564.71865337 155.09102617 564.70094324 151.42085434 C564.69506102 149.4834364 564.70365883 147.5459906 564.71298975 145.60858619 C564.53723089 121.00505505 554.55572288 99.41218092 537.30709743 82.13422108 C536.54912868 81.36465076 535.79115993 80.59508045 535.01022243 79.80218983 C517.87905159 63.37082171 493.99567393 55.94808802 470.60467243 56.00279331 C469.77316705 56.00074068 468.94166167 55.99868804 468.08495915 55.99657321 C465.31042847 55.99093774 462.53594798 55.99235616 459.76141262 55.99377918 C457.74730756 55.99119357 455.73320301 55.98817987 453.71909916 55.98477578 C448.19302035 55.9767257 442.66695455 55.97491732 437.14087057 55.97417831 C431.17749243 55.97232431 425.21412098 55.96477529 419.25074673 55.9580431 C405.53616116 55.94376669 391.82157658 55.93793535 378.10698528 55.93335115 C371.32510914 55.93101245 364.54323384 55.92740952 357.76135835 55.92365578 C334.53158962 55.91082346 311.30182134 55.90010355 288.07204914 55.89665318 C286.61490532 55.89643155 285.1577615 55.89620976 283.70061768 55.89598782 C282.240027 55.89576719 280.77943631 55.8955467 279.31884563 55.89532638 C276.38882279 55.89488383 273.45879996 55.89443671 270.52877712 55.8939867 C269.80230641 55.89387731 269.07583569 55.89376792 268.32735072 55.89365521 C244.77494585 55.8900251 221.22257177 55.87410515 197.67017869 55.85079634 C172.74995307 55.82617907 147.82974504 55.81247948 122.90950692 55.81128526 C120.17194151 55.81111381 117.43437612 55.81089839 114.69681072 55.81065083 C114.02277999 55.81059506 113.34874925 55.81053929 112.65429334 55.81048183 C101.8261101 55.80933311 90.99795857 55.79832656 80.16978603 55.78376377 C69.27883595 55.76937021 58.38792829 55.76642964 47.49697141 55.77420375 C41.60148505 55.77810565 35.70610498 55.77720295 29.81063175 55.7631464 C24.40690901 55.7503804 19.00337215 55.75162876 13.59964956 55.76373711 C11.65147977 55.76568941 9.70329668 55.76263744 7.75514553 55.75389275 C-18.76562101 55.6424465 -42.50097943 62.24488566 -62.69290257 80.13422108 Z " fill="#136CF1" transform="translate(275.69290256500244,152.86577892303467)"/>
<path d="M0 0 C4.71547584 3.07493688 7.9926603 7.19485828 10.58203125 12.1484375 C12.21497685 21.58323431 11.74943555 28.11359469 6.44140625 36.27734375 C-21.17480019 73.8034474 -59.38665779 97.24034158 -104.85546875 106.3984375 C-106.08007812 106.6459375 -107.3046875 106.8934375 -108.56640625 107.1484375 C-126.12598355 110.04154863 -145.37799476 109.58949781 -162.85546875 106.3984375 C-163.5323877 106.28016602 -164.20930664 106.16189453 -164.90673828 106.04003906 C-196.67963347 100.34223034 -225.3796327 85.41943567 -248.37646484 62.84667969 C-249.81904174 61.43410687 -251.2842963 60.0448114 -252.75 58.65625 C-262.80862052 48.9493295 -276.72282531 35.36159956 -277.16796875 20.6484375 C-277.05248142 14.08490765 -275.25329135 9.87849589 -270.69140625 5.16015625 C-264.14314962 -0.84418981 -260.01676978 -1.99106628 -251.140625 -1.86328125 C-242.682049 -1.18941134 -238.48362827 3.39390948 -233.125 9.62890625 C-231.64816655 11.4311006 -230.18631038 13.24570826 -228.7421875 15.07421875 C-208.85367747 40.19846085 -180.58780362 56.86908518 -148.7109375 60.9296875 C-114.28846058 64.60810641 -81.23278748 54.48198409 -54.23046875 33.0234375 C-45.73911137 25.88242492 -38.391171 18.20423807 -31.78515625 9.30786133 C-23.66309244 -1.46771764 -12.75691229 -6.30026141 0 0 Z " fill="#013270" transform="translate(642.85546875,498.6015625)"/>
<path d="M0 0 C5.4580659 3.78035169 10.47128251 7.6985747 14.16015625 13.265625 C14.64484375 13.99652344 15.12953125 14.72742188 15.62890625 15.48046875 C20.94284605 25.06032133 20.61746774 36.55083567 18.34375 47.02734375 C15.00390842 56.86067523 8.3898411 65.24009338 -0.76953125 70.3046875 C-11.14692957 75.12136672 -22.79092954 76.28750416 -33.77734375 72.640625 C-44.00750592 68.29734609 -53.03432446 60.35388348 -57.27734375 49.953125 C-57.83398372 48.40301998 -58.35834676 46.84069143 -58.83984375 45.265625 C-59.12601563 44.35103516 -59.12601563 44.35103516 -59.41796875 43.41796875 C-61.2525482 34.05821619 -60.45584912 24.62045093 -55.83984375 16.265625 C-55.41574219 15.48574219 -54.99164062 14.70585937 -54.5546875 13.90234375 C-49.25265683 5.1148556 -40.79932004 -1.0753072 -31.0859375 -4.3203125 C-20.69067942 -6.23665573 -9.0889988 -5.55091536 0 0 Z " fill="#013270" transform="translate(647.83984375,351.734375)"/>
<path d="M0 0 C10.10124663 6.34935502 16.5286715 14.21828718 20.28515625 25.69140625 C22.37561905 37.69995367 19.77270466 48.2834497 13.28515625 58.39453125 C7.54540196 66.46011014 -0.1299411 71.810458 -9.81640625 74.35546875 C-22.72478893 76.15709885 -33.64531039 74.03736314 -44.296875 66.47265625 C-51.33757378 60.47009453 -56.95847465 51.9332327 -58.36328125 42.7109375 C-59.33108469 29.31377274 -58.12898722 19.01946165 -49.17578125 8.3359375 C-36.32034312 -4.96869231 -16.61918557 -9.06501031 0 0 Z " fill="#013270" transform="translate(416.36328125,351.2890625)"/>
<path d="M0 0 C0.83728333 0.00151888 1.67456666 0.00303776 2.53722221 0.00460267 C3.50461253 -0.00336152 4.47200286 -0.01132572 5.46870804 -0.01953125 C6.53387124 -0.00787988 7.59903445 0.00377148 8.69647533 0.01577592 C9.82609905 0.01235822 10.95572278 0.00894052 12.11957753 0.00541925 C15.92470493 -0.00119694 19.72913512 0.02087912 23.53419811 0.04269242 C26.25382243 0.0460444 28.97343288 0.04336498 31.69305736 0.0409224 C37.55842881 0.03882299 43.42362256 0.05139381 49.28894931 0.07387376 C57.76924033 0.10635492 66.24944525 0.11679678 74.72979174 0.12182572 C88.48788479 0.13058449 102.24588308 0.15721581 116.00392467 0.19503617 C129.37013078 0.23174123 142.73631116 0.26006034 156.10255748 0.27706742 C156.92618009 0.27811832 157.7498027 0.27916921 158.59838357 0.28025195 C162.73017517 0.28547203 166.86196695 0.29052688 170.99375886 0.29549956 C205.28180225 0.33697971 239.56973313 0.40744393 273.85768443 0.49679399 C273.85768443 1.15679399 273.85768443 1.81679399 273.85768443 2.49679399 C274.84768443 2.82679399 275.83768443 3.15679399 276.85768443 3.49679399 C137.26768443 3.99179399 137.26768443 3.99179399 -5.14231557 4.49679399 C-2.14231557 0.49679399 -2.14231557 0.49679399 0 0 Z " fill="#0563FE" transform="translate(486.14231556653976,700.5032060146332)"/>
<path d="M0 0 C1.00196411 0.09849243 1.00196411 0.09849243 2.02416992 0.19897461 C13.43643575 1.2040662 24.86368725 1.34200168 36.3125 1.5625 C38.42123082 1.60578678 40.52995489 1.64940394 42.63867188 1.69335938 C47.75904468 1.79938139 52.87948808 1.90093442 58 2 C58 2.66 58 3.32 58 4 C51.65034458 4.0510999 45.30074304 4.08589991 38.95092773 4.10986328 C36.7949831 4.11986317 34.63905182 4.13346747 32.4831543 4.15087891 C29.36764204 4.17539347 26.25231054 4.18654353 23.13671875 4.1953125 C22.18729904 4.20563507 21.23787933 4.21595764 20.25968933 4.22659302 C13.76878888 4.22765867 7.25859655 3.85456307 1 2 C0.67 1.34 0.34 0.68 0 0 Z " fill="#F7DF0B" transform="translate(250,697)"/>
<path d="M0 0 C0.66 0.99 1.32 1.98 2 3 C1.56429687 3.44988281 1.12859375 3.89976562 0.6796875 4.36328125 C-6.91126328 12.56216532 -14.92161 24.71862391 -15.01953125 36.3125 C-14.77032475 38.40600348 -14.77032475 38.40600348 -14 41 C-14.99 41.495 -14.99 41.495 -16 42 C-16.90725434 44.11327425 -16.90725434 44.11327425 -17.625 46.5625 C-17.88539063 47.38878906 -18.14578125 48.21507812 -18.4140625 49.06640625 C-18.60742188 49.70449219 -18.80078125 50.34257812 -19 51 C-19.66 51 -20.32 51 -21 51 C-19.19580766 32.23639972 -11.61971941 14.80219033 0 0 Z " fill="#F0E40F" transform="translate(205,241)"/>
<path d="M0 0 C0 0.33 0 0.66 0 1 C-2.31 1.33 -4.62 1.66 -7 2 C-7 1.34 -7 0.68 -7 0 C-12.85435361 -0.08397638 -16.91049123 0.37378931 -21.375 4.375 C-22.28378906 5.28378906 -22.28378906 5.28378906 -23.2109375 6.2109375 C-25.02264471 8.02264471 -26.92150375 9.5075115 -29 11 C-29.66 10.67 -30.32 10.34 -31 10 C-22.58037984 -0.68127345 -13.39362071 -5.49481875 0 0 Z " fill="#0E2872" transform="translate(642,498)"/>
<path d="M0 0 C2.75 -0.25 2.75 -0.25 6 0 C7.37849103 1.28659163 8.70529025 2.62913085 10 4 C11.93323626 5.02588225 13.8902597 5.91730782 15.90234375 6.77734375 C18.75725085 8.44137712 20.72089571 10.61171706 23 13 C23.96220803 13.96747229 24.92711417 14.93226771 25.89453125 15.89453125 C28.59635417 18.59635417 31.29817708 21.29817708 34 24 C33.67 24.66 33.34 25.32 33 26 C32.29617188 25.23816406 31.59234375 24.47632813 30.8671875 23.69140625 C21.67052891 13.98513697 11.59876149 7.58586204 0 1 C0 0.67 0 0.34 0 0 Z " fill="#0E4DEE" transform="translate(786,216)"/>
<path d="M0 0 C2.64 0.33 5.28 0.66 8 1 C4.69337377 3.20441749 1.79489586 4.08353611 -2 5.25 C-8.07233422 7.16471324 -13.38032306 9.60971388 -18.828125 12.9609375 C-21 14 -21 14 -24 13 C-23.67 11.68 -23.34 10.36 -23 9 C-22.195625 9.0825 -21.39125 9.165 -20.5625 9.25 C-15.77695269 8.91417212 -12.25300305 7.11577967 -8 5 C-7.22269531 4.6184375 -6.44539063 4.236875 -5.64453125 3.84375 C-3.7568183 2.90824624 -1.87750694 1.95582171 0 1 C0 0.67 0 0.34 0 0 Z " fill="#1055EE" transform="translate(249,209)"/>
<path d="M0 0 C3.07333164 2.23515028 5.61336298 4.61866233 8.0625 7.5 C13.03506167 13.32876434 18.55093479 18.62263302 24 24 C25.00105097 24.99894792 26.00171086 25.99829206 27 27 C23.13066838 26.42676569 20.84777943 24.61046448 18 22 C18 21.34 18 20.68 18 20 C17.43152344 19.76796875 16.86304688 19.5359375 16.27734375 19.296875 C13.43386577 17.67760452 11.71420902 15.71122696 9.5625 13.25 C8.78132813 12.35796875 8.00015625 11.4659375 7.1953125 10.546875 C6.47085937 9.70640625 5.74640625 8.8659375 5 8 C4.44054687 7.36578125 3.88109375 6.7315625 3.3046875 6.078125 C0 2.26357143 0 2.26357143 0 0 Z " fill="#E5E110" transform="translate(377,543)"/>
<path d="M0 0 C0.33 0.99 0.66 1.98 1 3 C-0.49739583 4.23697917 -1.99479167 5.47395833 -3.4921875 6.7109375 C-4.71051161 7.75250992 -5.86660097 8.86660097 -7 10 C-8.66666667 10.33333333 -10.33333333 10.66666667 -12 11 C-12.66 11.66 -13.32 12.32 -14 13 C-14.99 12.67 -15.98 12.34 -17 12 C-13.66666667 9.33333333 -10.33333333 6.66666667 -7 4 C-5.66001953 2.87851562 -5.66001953 2.87851562 -4.29296875 1.734375 C-2 0 -2 0 0 0 Z " fill="#1161F0" transform="translate(397,774)"/>
<path d="M0 0 C0.99 0.33 1.98 0.66 3 1 C2.67 1.99 2.34 2.98 2 4 C1.236875 4.2475 0.47375 4.495 -0.3125 4.75 C-3.28036872 6.13040406 -3.643677 6.7318134 -5.125 9.5 C-7 13 -7 13 -10 15 C-10.33 14.01 -10.66 13.02 -11 12 C-8.42131681 7.16496903 -4.75538014 2.8355747 0 0 Z " fill="#072972" transform="translate(378,499)"/>
<path d="M0 0 C3.35511255 1.47260596 5.69964703 3.3873911 8.375 5.875 C13.24769125 10.28438618 17.72376871 13.78485954 24 16 C23.67 16.66 23.34 17.32 23 18 C16.43798842 15.7484474 11.40856878 11.21882963 6 7 C5.30261719 6.46117187 4.60523438 5.92234375 3.88671875 5.3671875 C2.54632845 4.29871409 1.26358661 3.15828773 0 2 C0 1.34 0 0.68 0 0 Z " fill="#EAE20B" transform="translate(426,526)"/>
<path d="M0 0 C0 0.99 0 1.98 0 3 C-1.93441615 4.89916483 -4.02442206 6.50602585 -6.15234375 8.18359375 C-8.19443156 10.19114308 -8.46700685 11.26132242 -9 14 C-12.32142857 17 -12.32142857 17 -15 17 C-14.33333333 15.66666667 -13.66666667 14.33333333 -13 13 C-12.7628125 12.3915625 -12.525625 11.783125 -12.28125 11.15625 C-10.49155419 8.14432291 -8.11325341 6.4151306 -5.375 4.25 C-4.37210937 3.45078125 -3.36921875 2.6515625 -2.3359375 1.828125 C-1.17964844 0.92320312 -1.17964844 0.92320312 0 0 Z " fill="#155DEB" transform="translate(326,831)"/>
<path d="M0 0 C0 3 0 3 -2.3359375 5.59375 C-3.34159469 6.57014203 -4.35497561 7.53862701 -5.375 8.5 C-8.20316005 11.20613284 -10.81309723 13.71964585 -13 17 C-16.125 18.1875 -16.125 18.1875 -19 19 C-16.11184407 15.02878559 -12.81255476 12.01224187 -9.10546875 8.84765625 C-5.91726976 6.04984898 -2.95620854 3.03935191 0 0 Z " fill="#061677" transform="translate(604,517)"/>
<path d="M0 0 C0 2 0 2 -1.875 4.125 C-4 6 -4 6 -6 6 C-6.33 6.66 -6.66 7.32 -7 8 C-7 7.34 -7 6.68 -7 6 C-8.32 6 -9.64 6 -11 6 C-11 5.34 -11 4.68 -11 4 C-11.99 3.67 -12.98 3.34 -14 3 C-12.0424015 2.49713066 -10.08389623 1.9977901 -8.125 1.5 C-7.03445313 1.2215625 -5.94390625 0.943125 -4.8203125 0.65625 C-2 0 -2 0 0 0 Z " fill="#1767E9" transform="translate(780,696)"/>
<path d="M0 0 C0.66 0.33 1.32 0.66 2 1 C1.24074219 1.54269531 0.48148438 2.08539062 -0.30078125 2.64453125 C-1.29464844 3.35996094 -2.28851562 4.07539062 -3.3125 4.8125 C-4.29863281 5.52019531 -5.28476562 6.22789062 -6.30078125 6.95703125 C-8.92672492 8.82793968 -8.92672492 8.82793968 -10.625 10.71875 C-12.97729185 12.91065832 -15.91378816 12.70884794 -19 13 C-15.21905014 10.06684044 -11.23646163 7.45381343 -7.25 4.8125 C-6.55261719 4.34908203 -5.85523438 3.88566406 -5.13671875 3.40820312 C-3.42517767 2.27108336 -1.71268349 1.13539838 0 0 Z " fill="#ECE70B" transform="translate(611,573)"/>
<path d="M0 0 C3.00161567 1.32525231 4.86865222 2.68524256 6.98046875 5.1875 C7.76647461 6.11175781 7.76647461 6.11175781 8.56835938 7.0546875 C9.10267578 7.69664062 9.63699219 8.33859375 10.1875 9 C11.00637695 9.96292969 11.00637695 9.96292969 11.84179688 10.9453125 C15.84211151 15.68422302 15.84211151 15.68422302 17 18 C12.95190965 16.41102996 10.62436647 13.69374052 7.75 10.5 C7.29109375 10.00113281 6.8321875 9.50226563 6.359375 8.98828125 C3 5.25897507 3 5.25897507 3 3 C2.01 2.67 1.02 2.34 0 2 C0 1.34 0 0.68 0 0 Z " fill="#132270" transform="translate(401,501)"/>
<path d="M0 0 C2 3 2 3 2 5 C1.01 5.495 1.01 5.495 0 6 C-0.90725434 8.11327425 -0.90725434 8.11327425 -1.625 10.5625 C-1.88539063 11.38878906 -2.14578125 12.21507812 -2.4140625 13.06640625 C-2.60742188 13.70449219 -2.80078125 14.34257812 -3 15 C-3.66 15 -4.32 15 -5 15 C-4.125 7.375 -4.125 7.375 -3 4 C-2.34 4 -1.68 4 -1 4 C-0.67 2.68 -0.34 1.36 0 0 Z " fill="#F1D50F" transform="translate(189,277)"/>
<path d="M0 0 C1.04865757 3.16708663 0.98358535 4.81599286 -0.3125 7.875 C-0.59351563 8.56335938 -0.87453125 9.25171875 -1.1640625 9.9609375 C-1.43992188 10.63382812 -1.71578125 11.30671875 -2 12 C-2.67735217 13.99640639 -3.34838935 15.99504414 -4 18 C-4.66 18 -5.32 18 -6 18 C-4.83805848 11.53287812 -2.8751252 5.90377651 0 0 Z " fill="#E7DC18" transform="translate(192,263)"/>
<path d="M0 0 C2.475 0.99 2.475 0.99 5 2 C3.35 3.98 1.7 5.96 0 8 C-1.32 7.67 -2.64 7.34 -4 7 C-3.34 6.34 -2.68 5.68 -2 5 C-2 4.01 -2 3.02 -2 2 C-1.34 2 -0.68 2 0 2 C0 1.34 0 0.68 0 0 Z " fill="#F4D70C" transform="translate(404,760)"/>
<path d="M0 0 C0.93065133 2.60582371 1.14917407 3.64198224 0.0625 6.25 C-0.4634375 7.11625 -0.4634375 7.11625 -1 8 C-1.66 8 -2.32 8 -3 8 C-3.268125 8.78375 -3.53625 9.5675 -3.8125 10.375 C-5 13 -5 13 -8 15 C-6.73147656 11.72298112 -5.38102094 8.48097064 -4 5.25 C-3.67 4.47140625 -3.34 3.6928125 -3 2.890625 C-2 1 -2 1 0 0 Z " fill="#F1DF08" transform="translate(668,396)"/>
<path d="M0 0 C4.45673159 0.49871064 6.57687178 2.02004362 9.8125 5.0625 C10.60269531 5.79597656 11.39289063 6.52945312 12.20703125 7.28515625 C13.09455078 8.13400391 13.09455078 8.13400391 14 9 C13.67 9.99 13.34 10.98 13 12 C12.48050781 11.46890625 11.96101563 10.9378125 11.42578125 10.390625 C7.77192991 6.68949647 4.17122079 3.12841559 0 0 Z " fill="#E1D912" transform="translate(416,351)"/>
<path d="M0 0 C0.66 0 1.32 0 2 0 C2.67364661 2.08108685 3.33866798 4.1649671 4 6.25 C4.37125 7.41015625 4.7425 8.5703125 5.125 9.765625 C6 13 6 13 6 17 C5.34 17 4.68 17 4 17 C3.49528803 15.23050388 2.99639315 13.45934777 2.5 11.6875 C2.2215625 10.70136719 1.943125 9.71523438 1.65625 8.69921875 C1 6 1 6 1 3 C0.34 3 -0.32 3 -1 3 C-0.67 2.01 -0.34 1.02 0 0 Z " fill="#E5DB1C" transform="translate(833,268)"/>
<path d="M0 0 C0.89203125 0.00902344 1.7840625 0.01804688 2.703125 0.02734375 C3.37859375 0.03894531 4.0540625 0.05054688 4.75 0.0625 C4.75 1.0525 4.75 2.0425 4.75 3.0625 C2.97950311 3.11660687 1.20853151 3.15534119 -0.5625 3.1875 C-2.04169922 3.22230469 -2.04169922 3.22230469 -3.55078125 3.2578125 C-6.25 3.0625 -6.25 3.0625 -9.25 1.0625 C-6.09493858 0.12630187 -3.28413498 -0.0432123 0 0 Z " fill="#105EF5" transform="translate(770.25,207.9375)"/>
<path d="M0 0 C6.49879415 3.11400553 10.45272526 7.47240369 15 13 C12 13 12 13 10.60546875 11.609375 C10.13753906 10.99578125 9.66960938 10.3821875 9.1875 9.75 C7.17133343 7.24874072 5.35578998 5.38536706 2.625 3.6875 C1.75875 3.130625 0.8925 2.57375 0 2 C0 1.34 0 0.68 0 0 Z " fill="#142471" transform="translate(647,352)"/>
<path d="M0 0 C2.02907167 3.3146667 2.12742133 5.4315979 1.625 9.25 C1.51414062 10.14203125 1.40328125 11.0340625 1.2890625 11.953125 C1.19367188 12.62859375 1.09828125 13.3040625 1 14 C2.98 14.495 2.98 14.495 5 15 C3.68 15.99 2.36 16.98 1 18 C-0.2062252 14.38132441 -0.10816918 11.07493749 -0.0625 7.3125 C-0.05798828 6.61060547 -0.05347656 5.90871094 -0.04882812 5.18554688 C-0.03706927 3.45699462 -0.01913454 1.72848635 0 0 Z " fill="#F1CC11" transform="translate(309,827)"/>
<path d="M0 0 C2.28814723 2.28814723 2.75451161 3.80751622 3.6875 6.875 C3.95949219 7.73867188 4.23148438 8.60234375 4.51171875 9.4921875 C5.01692938 12.08694932 4.85561171 13.530785 4 16 C1.18150494 10.45108785 -0.5326514 6.258654 0 0 Z " fill="#1055EF" transform="translate(185,630)"/>
<path d="M0 0 C0 0.99 0 1.98 0 3 C-3.11910856 4.79275866 -5.67682428 5.34290718 -9.25 5.625 C-10.14203125 5.69976563 -11.0340625 5.77453125 -11.953125 5.8515625 C-12.62859375 5.90054688 -13.3040625 5.94953125 -14 6 C-11.09091772 4.06061181 -8.59137621 3.03225043 -5.3125 1.875 C-4.31863281 1.52179687 -3.32476563 1.16859375 -2.30078125 0.8046875 C-1.54152344 0.53914062 -0.78226563 0.27359375 0 0 Z " fill="#E3D910" transform="translate(576,593)"/>
<path d="M0 0 C2.475 0.495 2.475 0.495 5 1 C5 1.66 5 2.32 5 3 C7.64 3.33 10.28 3.66 13 4 C13 4.33 13 4.66 13 5 C8.17639811 5.19294408 4.50353262 4.75747614 0 3 C0 2.01 0 1.02 0 0 Z " fill="#092577" transform="translate(611,420)"/>
<path d="M0 0 C0.89203125 0.10183594 1.7840625 0.20367187 2.703125 0.30859375 C3.37859375 0.39238281 4.0540625 0.47617187 4.75 0.5625 C4.75 0.8925 4.75 1.2225 4.75 1.5625 C0.79 2.2225 -3.17 2.8825 -7.25 3.5625 C-7.91 2.5725 -8.57 1.5825 -9.25 0.5625 C-5.98086376 -0.46865279 -3.38958652 -0.4013984 0 0 Z " fill="#113371" transform="translate(394.25,347.4375)"/>
<path d="M0 0 C0 0.99 0 1.98 0 3 C-0.5775 3.0825 -1.155 3.165 -1.75 3.25 C-4.60798931 4.2026631 -5.92954588 5.86053074 -8 8 C-8.66 8 -9.32 8 -10 8 C-8.48502075 3.75805811 -4.70198172 0 0 0 Z " fill="#0E59F3" transform="translate(808,681)"/>
<path d="M0 0 C3.45195767 1.4258086 5.1014256 3.09746334 7.25 6.125 C8.03117187 7.21167969 8.03117187 7.21167969 8.828125 8.3203125 C9.40820312 9.15175781 9.40820312 9.15175781 10 10 C9.67 10.66 9.34 11.32 9 12 C7.49405319 10.38050958 5.99539332 8.75424026 4.5 7.125 C3.6646875 6.22007812 2.829375 5.31515625 1.96875 4.3828125 C0 2 0 2 0 0 Z " fill="#E4DF0E" transform="translate(412,511)"/>
<path d="M0 0 C2.8097586 1.36077995 5.47615865 2.84825102 8.125 4.5 C8.80820312 4.9228125 9.49140625 5.345625 10.1953125 5.78125 C12 7 12 7 14 9 C10.06946815 8.43450607 7.46592463 7.28617442 4.1875 5.0625 C3.39730469 4.53785156 2.60710937 4.01320313 1.79296875 3.47265625 C1.20128906 2.98667969 0.60960937 2.50070312 0 2 C0 1.34 0 0.68 0 0 Z " fill="#122070" transform="translate(370,414)"/>
<path d="M0 0 C0.66 0.33 1.32 0.66 2 1 C2 2.32 2 3.64 2 5 C0.68 5.33 -0.64 5.66 -2 6 C-2.33 7.65 -2.66 9.3 -3 11 C-3.66 11 -4.32 11 -5 11 C-3.77472971 6.94718288 -2.30119506 3.55639236 0 0 Z " fill="#122C70" transform="translate(365,362)"/>
<path d="M0 0 C0.66 0.33 1.32 0.66 2 1 C1 4 1 4 -1.8125 5.625 C-4.25800018 6.67992164 -6.40235776 7.50045341 -9 8 C-6.14723863 5.06799526 -3.34920216 2.35684596 0 0 Z " fill="#1257EA" transform="translate(389,779)"/>
<path d="M0 0 C1.32 0 2.64 0 4 0 C4 0.66 4 1.32 4 2 C5.98 2 7.96 2 10 2 C10 3.32 10 4.64 10 6 C6.40992874 4.66654496 3.20429093 3.1056769 0 1 C0 0.67 0 0.34 0 0 Z " fill="#E9DE16" transform="translate(226,687)"/>
<path d="M0 0 C0.66 0.33 1.32 0.66 2 1 C-0.64 3.64 -3.28 6.28 -6 9 C-6.66 7.68 -7.32 6.36 -8 5 C-7.236875 4.731875 -6.47375 4.46375 -5.6875 4.1875 C-3.12619116 3.05575888 -1.80307062 2.08776599 0 0 Z " fill="#031977" transform="translate(634,550)"/>
<path d="M0 0 C1.65 0 3.3 0 5 0 C1.88983545 3.28788824 -1.01618925 5.83735988 -5 8 C-3.98379995 4.95139986 -3.22608429 4.13333078 -1 2 C-0.67 1.34 -0.34 0.68 0 0 Z " fill="#0F2376" transform="translate(651,414)"/>
<path d="M0 0 C3.43927579 1.2419607 6.25207819 2.55740284 9 5 C9 5.66 9 6.32 9 7 C7.68 7 6.36 7 5 7 C4.731875 6.401875 4.46375 5.80375 4.1875 5.1875 C3.01506533 3.02775192 1.80630718 1.64209744 0 0 Z " fill="#0E2672" transform="translate(436,537)"/>
<path d="M0 0 C2.8125 -0.25 2.8125 -0.25 6 0 C7.875 2 7.875 2 9 4 C8.01 4.495 8.01 4.495 7 5 C4.5249829 3.88568235 2.32116581 2.41849022 0 1 C0 0.67 0 0.34 0 0 Z " fill="#175BE7" transform="translate(786,216)"/>
<path d="M0 0 C0.66 0.33 1.32 0.66 2 1 C0.63016497 4.16115776 0.0109362 4.9927092 -3 7 C-2.25 2.25 -2.25 2.25 0 0 Z " fill="#095CF7" transform="translate(412,760)"/>
<path d="M0 0 C2.97 0 5.94 0 9 0 C4 2.5 4 2.5 -1 5 C-0.67 3.35 -0.34 1.7 0 0 Z " fill="#EADF0D" transform="translate(618,496)"/>
<path d="M0 0 C0.66 0.33 1.32 0.66 2 1 C-0.40436026 4.60654039 -1.94679607 4.85452932 -6 6 C-2.25 1.125 -2.25 1.125 0 0 Z " fill="#0A2174" transform="translate(591,530)"/>
<path d="M0 0 C2 1 2 1 3.1875 3.375 C4 6 4 6 3 9 C0.9375 6.1875 0.9375 6.1875 -1 3 C-0.67 2.01 -0.34 1.02 0 0 Z " fill="#0A2470" transform="translate(371,530)"/>
<path d="M0 0 C0.66 0 1.32 0 2 0 C1.34 2.31 0.68 4.62 0 7 C-0.99 6.67 -1.98 6.34 -3 6 C-2.67 4.68 -2.34 3.36 -2 2 C-1.67 2.33 -1.34 2.66 -1 3 C-0.67 2.01 -0.34 1.02 0 0 Z " fill="#145DF1" transform="translate(187,270)"/>
</svg>
